<svg aria-hidden="true" style="position: absolute; width: 0; height: 0; overflow: hidden;" version="1.1" xmlns="http://www.w3.org/2000/svg" xmlns:xlink="http://www.w3.org/1999/xlink">
    <defs>
        <symbol id="icon-athlete" viewBox="0 0 32 32">
            <path d="M29.646 9.45c-0.219-0.259-0.544-0.422-0.907-0.422-0.289 0-0.555 0.104-0.76 0.276l0.002-0.002-3.282 2.756-1.51-3.74c-0.056-0.139-0.133-0.259-0.229-0.361l0.001 0.001c-0.321-0.717-0.874-1.282-1.563-1.61l-0.019-0.008c-0.287-0.13-0.619-0.222-0.968-0.259l-0.014-0.001c-0.074-0.040-0.14-0.090-0.222-0.116l-5.776-1.61c-0.093-0.026-0.199-0.041-0.309-0.041-0.224 0-0.434 0.062-0.612 0.17l0.005-0.003c-0.33 0.108-0.59 0.352-0.717 0.664l-0.003 0.008-2.174 5.592c-0.050 0.127-0.080 0.274-0.080 0.428 0 0.501 0.309 0.929 0.748 1.104l0.008 0.003c0.126 0.050 0.273 0.079 0.426 0.079 0.501 0 0.93-0.311 1.104-0.751l0.003-0.008 1.836-4.72 2.63 0.73c-0.064 0.104-0.134 0.202-0.186 0.312l-3.372 7.31c-0.048 0.108-0.074 0.216-0.108 0.328l-4.1 6.87-6.856 2.294c-0.434 0.323-0.712 0.834-0.712 1.41 0 0.968 0.784 1.752 1.752 1.752 0.391 0 0.753-0.128 1.045-0.345l-0.005 0.003 7.020-2.418c0.202-0.154 0.366-0.348 0.482-0.571l0.004-0.009c0.090-0.094 0.19-0.168 0.258-0.284l2.442-4.096 4.338 3.696-4.64 5.228c-0.284 0.31-0.459 0.725-0.459 1.181 0 0.966 0.784 1.75 1.75 1.75 0.53 0 1.006-0.236 1.327-0.609l0.002-0.002 5.792-6.522c0.18-0.202 0.288-0.434 0.36-0.676 0.044-0.132 0.044-0.27 0.054-0.406 0-0.070 0.026-0.132 0.020-0.196-0.009-0.51-0.239-0.964-0.598-1.272l-0.002-0.002-3.99-3.402c0.286-0.274 0.532-0.6 0.708-0.984l2.586-5.6 0.828 2.208c0.034 0.196 0.1 0.388 0.24 0.55 0.121 0.138 0.272 0.246 0.444 0.313l0.008 0.003c0.018 0.008 0.040 0.010 0.060 0.016 0.106 0.038 0.216 0.074 0.328 0.080 0.025 0.002 0.054 0.003 0.084 0.003 0.115 0 0.226-0.017 0.33-0.049l-0.008 0.002h0.006c0.036-0.010 0.072-0.004 0.108-0.020 0.186-0.076 0.343-0.192 0.464-0.338l0.002-0.002 4.712-3.994c0.5-0.42 0.29-1.166-0.132-1.668zM23.69 6.602c1.823 0 3.301-1.478 3.301-3.301s-1.478-3.301-3.301-3.301v0c-1.823 0-3.301 1.478-3.301 3.301s1.478 3.301 3.301 3.301v0z"></path>
        </symbol>
        <symbol id="icon-play_video" viewBox="0 0 27 32">
            <path d="M26.667 16l-26.667 15.396v-30.791l26.667 15.396z"></path>
        </symbol>
    </defs>
</svg>
