<svg aria-hidden="true" style="position: absolute; width: 0; height: 0; overflow: hidden;" version="1.1" xmlns="http://www.w3.org/2000/svg" xmlns:xlink="http://www.w3.org/1999/xlink">
<defs>
<symbol id="icon-user" viewBox="0 0 32 32">
<path d="M16.235 0c2.122 0 4.157 0.843 5.657 2.343s2.343 3.535 2.343 5.657-0.843 4.157-2.343 5.657c-1.5 1.5-3.535 2.343-5.657 2.343s-4.157-0.843-5.657-2.343c-1.5-1.5-2.343-3.535-2.343-5.657s0.843-4.157 2.343-5.657c1.5-1.5 3.535-2.343 5.657-2.343zM16.235 32c0 0 16 0 16-4 0-4.8-7.8-10-16-10s-16 5.2-16 10c0 4 16 4 16 4z"></path>
</symbol>
<symbol id="icon-plus" viewBox="0 0 33 32">
<path fill="#e6533c" style="fill: var(--color1, #e6533c)" d="M11.238 0.428l4.69 1.356c0.339 0.098 0.699 0.099 1.038 0.002l4.83-1.375c0.845-0.241 1.744 0.136 2.166 0.906l2.506 4.577c0.168 0.307 0.419 0.561 0.723 0.734l3.986 2.258c0.771 0.437 1.133 1.352 0.869 2.198l-1.381 4.428c-0.113 0.363-0.114 0.752-0.002 1.115l1.394 4.521c0.258 0.836-0.094 1.739-0.849 2.18l-4.443 2.597c-0.303 0.177-0.551 0.436-0.715 0.746l-2.114 4.004c-0.409 0.775-1.298 1.165-2.145 0.941l-4.863-1.284c-0.317-0.084-0.651-0.083-0.968 0.002l-4.715 1.264c-0.867 0.232-1.777-0.179-2.175-0.983l-2.106-4.256c-0.177-0.357-0.462-0.649-0.816-0.834l-4.304-2.247c-0.786-0.411-1.179-1.314-0.943-2.169l1.255-4.548c0.089-0.322 0.090-0.662 0.005-0.985l-1.288-4.843c-0.221-0.833 0.151-1.71 0.904-2.129l4.422-2.46c0.322-0.179 0.584-0.448 0.754-0.775l2.090-4.007c0.414-0.794 1.331-1.187 2.192-0.938z"></path>
<path fill="none" stroke="#efede8" style="stroke: var(--color2, #efede8)" stroke-linejoin="round" stroke-linecap="round" stroke-miterlimit="4" stroke-width="2" d="M16.5 10.75v10.5"></path>
<path fill="none" stroke="#efede8" style="stroke: var(--color2, #efede8)" stroke-linejoin="round" stroke-linecap="round" stroke-miterlimit="4" stroke-width="2" d="M11.25 16h10.5"></path>
</symbol>
<symbol id="icon-pause-square" viewBox="0 0 33 32">
<path fill="#e6533c" style="fill: var(--color2, #e6533c); stroke: var(--color2, #e6533c)" stroke="#e6533c" stroke-linejoin="round" stroke-linecap="round" stroke-miterlimit="4" stroke-width="1" d="M4.5 10.4c0-2.24 0-3.36 0.436-4.216 0.383-0.753 0.995-1.365 1.748-1.748 0.856-0.436 1.976-0.436 4.216-0.436h11.2c2.24 0 3.36 0 4.216 0.436 0.753 0.383 1.364 0.995 1.748 1.748 0.436 0.856 0.436 1.976 0.436 4.216v11.2c0 2.24 0 3.36-0.436 4.216-0.384 0.753-0.995 1.364-1.748 1.748-0.856 0.436-1.976 0.436-4.216 0.436h-11.2c-2.24 0-3.36 0-4.216-0.436-0.753-0.384-1.365-0.995-1.748-1.748-0.436-0.856-0.436-1.976-0.436-4.216v-11.2z"></path>
<path fill="none" stroke="#efede8" style="stroke: var(--color1, #efede8)" stroke-linejoin="round" stroke-linecap="round" stroke-miterlimit="4" stroke-width="1.3" d="M13.166 20v-8M19.833 20v-8"></path>
</symbol>
<symbol id="icon-arrow" viewBox="0 0 32 32">
<path stroke-linejoin="round" stroke-linecap="round" stroke-miterlimit="4" stroke-width="2.7733" d="M16 29.867l13.867-13.867M29.867 16l-13.867-13.867M29.867 16h-27.733"></path>
</symbol>
<symbol id="icon-trash" viewBox="0 0 32 32">
<path fill="none" stroke="#ef8964" style="stroke: var(--color1, #ef8964)" stroke-linejoin="round" stroke-linecap="round" stroke-miterlimit="4" stroke-width="2.4" d="M12 4h8M13.333 14v6.667M18.667 14v6.667">
</path>
<path fill="none" stroke="#ef8964" style="stroke: var(--color1, #ef8964)" stroke-linejoin="round" stroke-linecap="round" stroke-miterlimit="4" stroke-width="2.4" d="M4 8h24M25.333 8l-0.935 14.026c-0.14 2.104-0.21 3.156-0.665 3.954-0.4 0.702-1.004 1.267-1.731 1.62-0.826 0.4-1.881 0.4-3.99 0.4h-4.025c-2.109 0-3.163 0-3.99-0.4-0.727-0.352-1.331-0.917-1.731-1.62-0.455-0.798-0.525-1.85-0.665-3.954l-0.935-14.026">
</path>
</symbol>
<symbol id="icon-search" viewBox="0 0 32 32">
<path stroke-linejoin="round" stroke-linecap="round" stroke-miterlimit="4" stroke-width="2.6667" d="M14.667 25.333c5.891 0 10.667-4.776 10.667-10.667s-4.776-10.667-10.667-10.667c-5.891 0-10.667 4.776-10.667 10.667s4.776 10.667 10.667 10.667z"></path>
<path stroke-linejoin="round" stroke-linecap="round" stroke-miterlimit="4" stroke-width="2.6667" d="M28 28l-5.8-5.8"></path>
</symbol>
<symbol id="icon-fire" viewBox="0 0 32 32">
<path fill="#ef8964" style="fill: var(--color3, #ef8964)" d="M16.001 22.291c-0.946 0.72-2.898 2.5-2.898 4.925 0 1.601 1.3 2.904 2.897 2.904s2.897-1.303 2.897-2.904c0-2.297-1.954-4.161-2.895-4.925z"></path>
<path fill="#ef8964" style="fill: var(--color3, #ef8964)" d="M22.79 5.57c-0.351-0.397-0.958-0.421-1.34-0.064l-4.412 4.117v-8.623c0-0.722-0.87-1.261-1.522-0.867-0.123 0.075-3.055 1.865-6.017 5.116-3.602 3.953-6.055 8.766-6.055 14.164 0 6.941 5.633 12.587 12.557 12.587-2.631 0-4.772-2.146-4.772-4.783 0-4.262 4.138-6.786 4.314-6.891 0.309-0.184 0.695-0.176 0.996 0.022 0.173 0.114 4.234 2.838 4.234 6.869 0 2.638-2.141 4.784-4.772 4.784 6.924 0 12.557-5.647 12.557-12.587 0-5.241-2.313-9.938-5.767-13.843z"></path>
</symbol>
<symbol id="icon-apple" viewBox="0 0 28 32">
<path fill="#ef8964" style="fill: var(--color3, #ef8964)" d="M18.318 1.948c0.128-0.039 0.247-0.103 0.35-0.188s0.187-0.191 0.249-0.31c0.061-0.119 0.098-0.249 0.109-0.382s-0.006-0.267-0.049-0.394c-0.042-0.127-0.11-0.244-0.198-0.344s-0.196-0.182-0.317-0.24c-0.12-0.058-0.251-0.091-0.385-0.098s-0.267 0.014-0.393 0.060c-1.876 0.624-3.044 2.164-3.732 3.814-0.092 0.223-0.177 0.449-0.254 0.678-0.375-0.71-0.854-1.359-1.422-1.926-0.769-0.77-1.687-1.375-2.698-1.778s-2.094-0.594-3.182-0.562c-1.16 0.032-2.086 0.96-2.118 2.118-0.032 1.088 0.16 2.171 0.562 3.182s1.007 1.929 1.778 2.698l0.062 0.060c-1.68 0.364-3.198 1.259-4.33 2.553s-1.817 2.918-1.954 4.631l-0.012 0.148c-0.264 3.294 0.438 6.594 2.020 9.496l0.72 1.316c0.020 0.034 0.040 0.068 0.064 0.1l2 2.804c0.453 0.635 1.039 1.163 1.718 1.549s1.432 0.618 2.21 0.683c0.777 0.064 1.559-0.042 2.292-0.31s1.397-0.693 1.949-1.245c0.085-0.085 0.185-0.152 0.296-0.198s0.229-0.069 0.349-0.069c0.12 0 0.238 0.024 0.349 0.069s0.211 0.113 0.296 0.198c0.552 0.552 1.217 0.977 1.949 1.245s1.514 0.374 2.292 0.31c0.777-0.064 1.532-0.297 2.21-0.683s1.264-0.914 1.718-1.549l2-2.802c0.023-0.033 0.045-0.067 0.064-0.102l0.718-1.316c1.582-2.902 2.284-6.202 2.020-9.496l-0.010-0.148c-0.088-1.104-0.405-2.178-0.931-3.154s-1.248-1.831-2.121-2.513c-0.873-0.682-1.879-1.175-2.953-1.448s-2.193-0.32-3.286-0.137l-3.314 0.552c0.020-1.362 0.26-2.894 0.798-4.186 0.56-1.35 1.392-2.31 2.516-2.686h0.002zM7.818 13.948c-0.307 0.097-0.592 0.254-0.838 0.462s-0.449 0.462-0.596 0.748c-0.37 0.696-0.624 1.844-0.39 3.718 0.026 0.26-0.050 0.52-0.213 0.724s-0.399 0.337-0.658 0.369c-0.259 0.032-0.521-0.038-0.729-0.196s-0.346-0.391-0.385-0.649c-0.266-2.128-0.020-3.73 0.61-4.908 0.64-1.2 1.614-1.848 2.566-2.166 0.125-0.041 0.256-0.058 0.387-0.049s0.259 0.044 0.376 0.103c0.117 0.059 0.222 0.14 0.308 0.239s0.152 0.214 0.193 0.339c0.041 0.125 0.058 0.256 0.049 0.387s-0.044 0.259-0.103 0.376c-0.059 0.117-0.14 0.222-0.239 0.308s-0.214 0.152-0.339 0.193z"></path>
</symbol>
<symbol id="icon-calendar" viewBox="0 0 32 32">
<path fill="none" stroke="#efede8" style="stroke: var(--color1, #efede8)" stroke-linejoin="round" stroke-linecap="round" stroke-miterlimit="4" stroke-width="2.6667" d="M25.333 5.333h-18.667c-1.473 0-2.667 1.194-2.667 2.667v18.667c0 1.473 1.194 2.667 2.667 2.667h18.667c1.473 0 2.667-1.194 2.667-2.667v-18.667c0-1.473-1.194-2.667-2.667-2.667z"></path>
<path fill="none" stroke="#efede8" style="stroke: var(--color1, #efede8)" stroke-linejoin="round" stroke-linecap="round" stroke-miterlimit="4" stroke-width="2.6667" d="M21.333 2.667v5.333"></path>
<path fill="none" stroke="#efede8" style="stroke: var(--color1, #efede8)" stroke-linejoin="round" stroke-linecap="round" stroke-miterlimit="4" stroke-width="2.6667" d="M10.667 2.667v5.333"></path>
<path fill="none" stroke="#efede8" style="stroke: var(--color1, #efede8)" stroke-linejoin="round" stroke-linecap="round" stroke-miterlimit="4" stroke-width="2.6667" d="M4 13.333h24"></path>
</symbol>
<symbol id="icon-daily-dumbbell" viewBox="0 0 46 32">
<path fill="#ef8964" style="fill: var(--color3, #ef8964)" d="M7.429 4.571h-3.429c-0.95 0-1.714 0.764-1.714 1.714v7.429h-1.714c-0.314 0-0.571 0.257-0.571 0.571v3.429c0 0.314 0.257 0.571 0.571 0.571h1.714v7.429c0 0.95 0.764 1.714 1.714 1.714h3.429c0.95 0 1.714-0.764 1.714-1.714v-19.429c0-0.95-0.764-1.714-1.714-1.714zM45.143 13.714h-1.714v-7.429c0-0.95-0.764-1.714-1.714-1.714h-3.429c-0.95 0-1.714 0.764-1.714 1.714v19.429c0 0.95 0.764 1.714 1.714 1.714h3.429c0.95 0 1.714-0.764 1.714-1.714v-7.429h1.714c0.314 0 0.571-0.257 0.571-0.571v-3.429c0-0.314-0.257-0.571-0.571-0.571zM32.571 0h-3.429c-0.95 0-1.714 0.764-1.714 1.714v12h-9.143v-12c0-0.95-0.764-1.714-1.714-1.714h-3.429c-0.95 0-1.714 0.764-1.714 1.714v28.571c0 0.95 0.764 1.714 1.714 1.714h3.429c0.95 0 1.714-0.764 1.714-1.714v-12h9.143v12c0 0.95 0.764 1.714 1.714 1.714h3.429c0.95 0 1.714-0.764 1.714-1.714v-28.571c0-0.95-0.764-1.714-1.714-1.714z"></path>
</symbol>
<symbol id="icon-fork-knife" viewBox="0 0 24 32">
<path fill="#ef8964" style="fill: var(--color3, #ef8964)" d="M22 1c0.408 0 0.802 0.15 1.107 0.421s0.5 0.645 0.548 1.050l0.012 0.195v26.667c-0.001 0.425-0.163 0.833-0.455 1.142s-0.69 0.495-1.114 0.52c-0.424 0.025-0.842-0.113-1.167-0.386s-0.535-0.659-0.585-1.081l-0.012-0.195v-8.333h-1.667c-0.408 0-0.802-0.15-1.107-0.421s-0.5-0.645-0.548-1.050l-0.012-0.195v-10c0-3.683 2.5-8.333 5-8.333zM12 1c0.408 0 0.802 0.15 1.107 0.421s0.5 0.645 0.548 1.050l0.012 0.195v8.333c-0 1.478-0.491 2.914-1.396 4.083s-2.173 2.004-3.604 2.374v11.877c-0 0.425-0.163 0.833-0.455 1.142s-0.69 0.495-1.114 0.52c-0.424 0.025-0.842-0.113-1.167-0.386s-0.535-0.659-0.585-1.081l-0.012-0.195v-11.877c-1.374-0.355-2.599-1.14-3.497-2.239s-1.421-2.457-1.495-3.874l-0.008-0.343v-8.333c0-0.425 0.163-0.833 0.455-1.142s0.69-0.495 1.114-0.52c0.424-0.025 0.842 0.113 1.167 0.386s0.535 0.659 0.585 1.081l0.012 0.195v8.333c0 0.585 0.154 1.16 0.447 1.667s0.713 0.928 1.22 1.22v-11.22c0-0.425 0.163-0.833 0.455-1.142s0.69-0.495 1.114-0.52c0.424-0.025 0.842 0.113 1.167 0.386s0.535 0.659 0.585 1.081l0.012 0.195 0.002 11.22c0.465-0.269 0.858-0.646 1.146-1.1s0.462-0.97 0.507-1.505l0.012-0.282v-8.333c0-0.442 0.176-0.866 0.488-1.179s0.736-0.488 1.179-0.488z"></path>
</symbol>
<symbol id="icon-bubble" viewBox="0 0 32 32">
<path fill="#ef8964" style="fill: var(--color1, #ef8964)" d="M20.793 16.346c3.778 0 6.84-3.062 6.84-6.84s-3.062-6.84-6.84-6.84c-3.778 0-6.84 3.062-6.84 6.84s3.062 6.84 6.84 6.84z">
</path>
<path fill="#ef8964" style="fill: var(--color1, #ef8964)" d="M8.476 25.919c2.268 0 4.107-1.839 4.107-4.107s-1.839-4.107-4.107-4.107c-2.268 0-4.107 1.839-4.107 4.107s1.839 4.107 4.107 4.107z">
</path>
<path fill="#ef8964" style="fill: var(--color1, #ef8964)" d="M22.151 29.332c1.885 0 3.413-1.528 3.413-3.413s-1.528-3.413-3.413-3.413c-1.885 0-3.413 1.528-3.413 3.413s1.528 3.413 3.413 3.413z">
</path>
</symbol>
<symbol id="icon-attention" viewBox="0 0 32 32">
<path fill="none" stroke="#efede8" style="stroke: var(--color2, #efede8)" stroke-linejoin="round" stroke-linecap="round" stroke-miterlimit="4" stroke-width="2.6667" d="M16 25.333v0.013M16 20v-13.333">
</path>
</symbol>
<symbol id="icon-arrow-left" viewBox="0 0 42 32">
<path fill="none" stroke="#e6533c" style="stroke: var(--color3, #e6533c)" stroke-linejoin="round" stroke-linecap="round" stroke-miterlimit="4" stroke-width="4.8" d="M18.133 29.333l-13.333-13.333M4.8 16l13.333-13.333M4.8 16h32">
</path>
</symbol>
<symbol id="icon-arrow-right" viewBox="0 0 42 32">
<path fill="none" stroke="#e6533c" style="stroke: var(--color3, #e6533c)" stroke-linejoin="round" stroke-linecap="round" stroke-miterlimit="4" stroke-width="4.8" d="M23.467 29.333l13.333-13.333M36.8 16l-13.333-13.333M36.8 16h-32">
</path>
</symbol>
<symbol id="icon-logout" viewBox="0 0 32 32">
<path fill="none" stroke="#e6533c" style="stroke: var(--color2, #e6533c)" stroke-linejoin="round" stroke-linecap="round" stroke-miterlimit="4" stroke-width="2.4" d="M12 4h-1.6c-2.24 0-3.36 0-4.216 0.436-0.753 0.383-1.365 0.995-1.748 1.748-0.436 0.856-0.436 1.976-0.436 4.216v11.2c0 2.24 0 3.36 0.436 4.216 0.383 0.753 0.995 1.364 1.748 1.748 0.856 0.436 1.976 0.436 4.216 0.436h1.6"></path>
<path fill="none" stroke="#e6533c" style="stroke: var(--color2, #e6533c)" stroke-linejoin="round" stroke-linecap="round" stroke-miterlimit="4" stroke-width="2.4" d="M21.333 22.667l6.667-6.667M28 16l-6.667-6.667M28 16h-16"></path>
</symbol>
<symbol id="icon-settings" viewBox="0 0 32 32">
<path fill="none" stroke="#efede8" style="stroke: var(--color1, #efede8)" stroke-linejoin="round" stroke-linecap="round" stroke-miterlimit="4" stroke-width="2.2857" d="M16 20c2.209 0 4-1.791 4-4s-1.791-4-4-4c-2.209 0-4 1.791-4 4s1.791 4 4 4z"></path>
<path fill="none" stroke="#efede8" style="stroke: var(--color1, #efede8)" stroke-linejoin="round" stroke-linecap="round" stroke-miterlimit="4" stroke-width="2.2857" d="M24.97 19.636c-0.161 0.366-0.209 0.771-0.138 1.164s0.259 0.756 0.538 1.042l0.073 0.073c0.225 0.225 0.404 0.492 0.526 0.787s0.185 0.61 0.185 0.928c0 0.319-0.063 0.634-0.185 0.928s-0.301 0.562-0.526 0.787c-0.225 0.225-0.493 0.404-0.787 0.526s-0.61 0.185-0.928 0.185c-0.319 0-0.634-0.063-0.928-0.185s-0.562-0.301-0.787-0.526l-0.073-0.073c-0.286-0.279-0.648-0.467-1.042-0.538s-0.799-0.023-1.164 0.138c-0.358 0.154-0.664 0.409-0.88 0.734s-0.331 0.706-0.333 1.096v0.206c0 0.643-0.255 1.26-0.71 1.714s-1.071 0.71-1.714 0.71c-0.643 0-1.26-0.255-1.714-0.71s-0.71-1.071-0.71-1.714v-0.109c-0.009-0.401-0.139-0.79-0.373-1.117s-0.56-0.575-0.936-0.714c-0.366-0.161-0.771-0.209-1.164-0.138s-0.756 0.259-1.042 0.538l-0.073 0.073c-0.225 0.225-0.492 0.404-0.787 0.526s-0.61 0.185-0.928 0.185-0.634-0.063-0.928-0.185c-0.294-0.122-0.562-0.301-0.787-0.526s-0.404-0.493-0.526-0.787-0.185-0.61-0.185-0.928c0-0.319 0.063-0.634 0.185-0.928s0.301-0.562 0.526-0.787l0.073-0.073c0.279-0.286 0.467-0.648 0.538-1.042s0.023-0.799-0.138-1.164c-0.154-0.358-0.409-0.664-0.734-0.88s-0.706-0.331-1.096-0.332h-0.206c-0.643 0-1.26-0.255-1.714-0.71s-0.71-1.071-0.71-1.714c0-0.643 0.255-1.26 0.71-1.714s1.071-0.71 1.714-0.71h0.109c0.401-0.009 0.79-0.139 1.117-0.373s0.575-0.56 0.714-0.936c0.161-0.366 0.21-0.771 0.138-1.164s-0.259-0.756-0.538-1.042l-0.073-0.073c-0.225-0.225-0.404-0.492-0.526-0.787s-0.185-0.61-0.185-0.928c0-0.319 0.063-0.634 0.185-0.928s0.301-0.562 0.526-0.787c0.225-0.225 0.492-0.404 0.787-0.526s0.61-0.185 0.928-0.185c0.319 0 0.634 0.063 0.928 0.185s0.562 0.301 0.787 0.526l0.073 0.073c0.286 0.279 0.649 0.467 1.042 0.538s0.799 0.023 1.164-0.138h0.097c0.358-0.154 0.664-0.409 0.88-0.734s0.331-0.706 0.333-1.096v-0.206c0-0.643 0.255-1.26 0.71-1.714s1.071-0.71 1.714-0.71c0.643 0 1.26 0.255 1.714 0.71s0.71 1.071 0.71 1.714v0.109c0.002 0.39 0.117 0.771 0.332 1.096s0.521 0.58 0.88 0.734c0.366 0.161 0.771 0.209 1.164 0.138s0.756-0.259 1.042-0.538l0.073-0.073c0.225-0.225 0.493-0.404 0.787-0.526s0.61-0.185 0.928-0.185c0.319 0 0.634 0.063 0.928 0.185s0.562 0.301 0.787 0.526c0.226 0.225 0.404 0.492 0.526 0.787s0.185 0.61 0.185 0.928-0.063 0.634-0.185 0.928c-0.122 0.294-0.301 0.562-0.526 0.787l-0.073 0.073c-0.279 0.286-0.467 0.649-0.538 1.042s-0.023 0.799 0.138 1.164v0.097c0.154 0.358 0.409 0.664 0.734 0.88s0.706 0.331 1.096 0.332h0.206c0.643 0 1.26 0.255 1.714 0.71s0.71 1.071 0.71 1.714c0 0.643-0.255 1.26-0.71 1.714s-1.071 0.71-1.714 0.71h-0.109c-0.39 0.002-0.771 0.117-1.096 0.332s-0.58 0.521-0.734 0.88z"></path>
</symbol>
<symbol id="icon-run-man" viewBox="0 0 32 32">
<path d="M29.647 9.451c-0.419-0.501-1.166-0.567-1.667-0.149l-3.282 2.757-1.509-3.739c-0.054-0.14-0.135-0.258-0.229-0.362-0.308-0.686-0.844-1.275-1.582-1.617-0.321-0.146-0.652-0.224-0.982-0.262-0.073-0.038-0.139-0.088-0.222-0.114l-5.776-1.61c-0.324-0.088-0.65-0.031-0.917 0.125-0.317 0.107-0.589 0.338-0.719 0.672l-2.175 5.592c-0.236 0.608 0.066 1.294 0.676 1.534 0.606 0.236 1.294-0.068 1.532-0.678l1.837-4.722 2.63 0.731c-0.064 0.104-0.133 0.201-0.185 0.312l-3.372 7.309c-0.049 0.107-0.075 0.217-0.109 0.328l-4.098 6.871-6.859 2.294c-0.776 0.581-0.941 1.674-0.367 2.45 0.577 0.778 1.674 0.943 2.448 0.369l7.018-2.417c0.215-0.156 0.371-0.36 0.489-0.58 0.088-0.094 0.189-0.168 0.256-0.284l2.443-4.096 4.337 3.696-4.64 5.23c-0.639 0.721-0.575 1.832 0.149 2.469 0.723 0.643 1.83 0.575 2.473-0.149l5.791-6.524c0.18-0.201 0.288-0.433 0.36-0.676 0.043-0.132 0.043-0.269 0.054-0.406 0-0.069 0.026-0.132 0.021-0.196-0.016-0.478-0.21-0.943-0.601-1.274l-3.991-3.403c0.288-0.274 0.532-0.6 0.709-0.983l2.585-5.599 0.828 2.206c0.035 0.196 0.101 0.388 0.239 0.549 0.125 0.149 0.284 0.248 0.454 0.317 0.017 0.009 0.038 0.010 0.059 0.016 0.107 0.038 0.217 0.075 0.329 0.080 0.133 0.012 0.269-0.005 0.405-0.043 0.004-0.002 0.005-0.002 0.005-0.002 0.036-0.009 0.073-0.002 0.109-0.017 0.192-0.073 0.34-0.196 0.466-0.34l4.71-3.998c0.501-0.421 0.289-1.166-0.132-1.667z"></path>
<path d="M23.69 6.602c1.823 0 3.301-1.478 3.301-3.301s-1.478-3.301-3.301-3.301c-1.823 0-3.301 1.478-3.301 3.301s1.478 3.301 3.301 3.301z"></path>
</symbol>
<symbol id="icon-play" viewBox="0 0 27 32">
<path d="M26.667 16l-26.667 15.396v-30.792l26.667 15.396z"></path>
</symbol>
<symbol id="icon-dumbbell" viewBox="0 0 83 32">
<path fill="#e6533c" style="fill: var(--color2, #e6533c)" d="M80.941 13.714c1.040 0 1.882 0.843 1.882 1.882v0.807c0 1.040-0.843 1.882-1.882 1.882h-2.151c-1.039 0-1.882 0.843-1.882 1.882v5.378c0 1.040-0.843 1.882-1.882 1.882h-2.151c-1.040 0-1.882 0.843-1.882 1.882v0.807c0 1.040-0.843 1.882-1.882 1.882h-5.109c-1.040 0-1.882-0.843-1.882-1.882v-9.95c0-1.040-0.843-1.882-1.882-1.882h-37.647c-1.040 0-1.882 0.843-1.882 1.882v9.95c0 1.040-0.843 1.882-1.882 1.882h-5.109c-1.040 0-1.882-0.843-1.882-1.882v-0.807c0-1.040-0.843-1.882-1.882-1.882h-2.151c-1.040 0-1.882-0.843-1.882-1.882v-5.378c0-1.040-0.843-1.882-1.882-1.882h-2.151c-1.040 0-1.882-0.843-1.882-1.882v-0.807c0-1.040 0.843-1.882 1.882-1.882h2.151c1.040 0 1.882-0.843 1.882-1.882v-5.378c0-1.040 0.843-1.882 1.882-1.882h2.151c1.040 0 1.882-0.843 1.882-1.882v-0.807c0-1.040 0.843-1.882 1.882-1.882h5.109c1.040 0 1.882 0.843 1.882 1.882v9.95c0 1.040 0.843 1.882 1.882 1.882h37.647c1.040 0 1.882-0.843 1.882-1.882v-9.95c0-1.040 0.843-1.882 1.882-1.882h5.109c1.040 0 1.882 0.843 1.882 1.882v0.807c0 1.040 0.843 1.882 1.882 1.882h2.151c1.040 0 1.882 0.843 1.882 1.882v5.378c0 1.040 0.843 1.882 1.882 1.882h2.151z"></path>
</symbol>

<symbol id="icon" viewBox="0 0 32 32">
<path fill="#efa082" style="fill: var(--color1, #efa082)" d="M32 16c0 8.837-7.163 16-16 16s-16-7.163-16-16c0-8.837 7.163-16 16-16s16 7.163 16 16z"></path>
<path fill="none" stroke="#efede8" style="stroke: var(--color2, #efede8)" stroke-linejoin="round" stroke-linecap="round" stroke-miterlimit="4" stroke-width="2.6667" d="M16 25.333v0.013M16 20v-13.333"></path>
</symbol>
<symbol id="pagination-btn" viewBox="0 0 32 32">
<path fill="none" stroke="#e6533c" style="stroke: var(--color1, #e6533c)" stroke-linejoin="miter" stroke-linecap="butt" stroke-miterlimit="4" stroke-width="2.2857" d="M30.857 16c0 8.205-6.652 14.857-14.857 14.857s-14.857-6.652-14.857-14.857c0-8.205 6.652-14.857 14.857-14.857s14.857 6.652 14.857 14.857z"></path>
<path fill="#e6533c" style="fill: var(--color1, #e6533c)" d="M25.143 16c0 5.049-4.093 9.143-9.143 9.143s-9.143-4.093-9.143-9.143c0-5.049 4.093-9.143 9.143-9.143s9.143 4.093 9.143 9.143z"></path>
</symbol>

<symbol id="icon-Line" viewBox="0 0 87 32">
<path stroke-linejoin="round" stroke-linecap="round" stroke-miterlimit="4" stroke-width="0.9275" d="M61.051 0.464c-20.416 0.3-65 3.913-60.233 22.304 4.284 12.985 65.327 10.195 80.388 0.425s-5.623-19.937-34.455-16.338"></path>
</symbol>
<symbol id="icon-menu" viewBox="0 0 46 32">
<path fill="none" stroke="#e6533c" style="stroke: var(--color1, #e6533c)" stroke-linejoin="round" stroke-linecap="round" stroke-miterlimit="4" stroke-width="3.5556" d="M1.778 16h28.444M1.778 1.778h42.667M1.778 30.222h42.667"></path>
</symbol>

<symbol id="icon-x" viewBox="0 0 32 32">
<path stroke-linejoin="round" stroke-linecap="round" stroke-miterlimit="4" stroke-width="2.4615" d="M24 8l-16 16"></path>
<path stroke-linejoin="round" stroke-linecap="round" stroke-miterlimit="4" stroke-width="2.4615" d="M8 8l16 16"></path>
</symbol>

<symbol id="icon-password-hidden" viewBox="0 0 32 32">
<path stroke-linejoin="round" stroke-linecap="round" stroke-miterlimit="4" stroke-width="2.88" d="M23.92 23.92c-2.279 1.737-5.055 2.7-7.92 2.747-9.333 0-14.667-10.667-14.667-10.667 1.659-3.091 3.959-5.791 6.747-7.92M13.2 5.653c0.918-0.215 1.857-0.322 2.8-0.32 9.333 0 14.667 10.667 14.667 10.667-0.809 1.514-1.775 2.94-2.88 4.253M18.827 18.827c-0.366 0.393-0.808 0.708-1.299 0.927s-1.020 0.336-1.557 0.346c-0.537 0.009-1.071-0.089-1.569-0.291s-0.95-0.501-1.33-0.88c-0.38-0.38-0.679-0.832-0.88-1.33s-0.3-1.032-0.29-1.569c0.009-0.537 0.127-1.067 0.346-1.558s0.534-0.932 0.927-1.298"></path>
<path stroke-linejoin="round" stroke-linecap="round" stroke-miterlimit="4" stroke-width="2.88" d="M1.333 1.333l29.333 29.333"></path>
</symbol>

<symbol id="icon-pasword-visible" viewBox="0 0 32 32">
<path stroke-linejoin="round" stroke-linecap="round" stroke-miterlimit="4" stroke-width="2.88" d="M1.333 16c0 0 5.333-10.667 14.667-10.667s14.667 10.667 14.667 10.667-5.333 10.667-14.667 10.667c-9.333 0-14.667-10.667-14.667-10.667z"></path>
<path stroke-linejoin="round" stroke-linecap="round" stroke-miterlimit="4" stroke-width="2.88" d="M16 20c2.209 0 4-1.791 4-4s-1.791-4-4-4c-2.209 0-4 1.791-4 4s1.791 4 4 4z"></path>
</symbol>

<symbol id="icon-status-input" viewBox="0 0 32 32">
<path d="M16 29.334c-7.364 0-13.333-5.969-13.333-13.333s5.969-13.333 13.333-13.333v0c7.364 0 13.333 5.969 13.333 13.333s-5.969 13.333-13.333 13.333v0zM14.46 21.98l9.426-9.428-1.886-1.886-7.54 7.544-3.776-3.772-1.884 1.884 5.656 5.658z"></path>
</symbol>

<symbol id="icon-circle-fill" viewBox="0 0 32 32">
<path d="M16 29.333c-7.364 0-13.333-5.969-13.333-13.333s5.969-13.333 13.333-13.333c7.364 0 13.333 5.969 13.333 13.333s-5.969 13.333-13.333 13.333zM14.459 21.98l9.427-9.428-1.885-1.885-7.541 7.543-3.772-3.772-1.885 1.885 5.657 5.657z"></path>
</symbol>

<symbol id="icon-chevron-left" viewBox="0 0 32 32">
<path fill="#efede8" style="fill: var(--color2, #efede8)" opacity="0.2" d="M21.086 1.086l2.828 2.828-11.586 11.586 11.586 11.586-2.828 2.828-14.414-14.414 14.414-14.414z"></path>
</symbol>

<symbol id="icon-chevron-right" viewBox="0 0 32 32">
<path fill="#efede8" style="fill: var(--color2, #efede8)" d="M10.914 29.914l-2.828-2.828 11.586-11.586-11.586-11.586 2.828-2.828 14.414 14.414-14.414 14.414z"></path>
</symbol>

<symbol id="icon-filter-down" viewBox="0 0 32 32">
<path stroke-linejoin="round" stroke-linecap="round" stroke-miterlimit="4" stroke-width="3.5556" d="M8 12l8 8 8-8"></path>
</symbol>
  
<symbol id="icon-Logo" viewBox="0 0 286 32">
<path fill="#e6533c" style="fill: var(--color1, #e6533c)" d="M80.941 13.715c1.040 0 1.882 0.843 1.882 1.882v0 0.806c0 1.040-0.843 1.882-1.882 1.882v0h-2.152c-1.040 0-1.882 0.843-1.882 1.882v0 5.378c0 1.040-0.843 1.882-1.882 1.882v0h-2.152c-1.040 0-1.882 0.843-1.882 1.882v0 0.808c0 1.040-0.843 1.882-1.882 1.882v0h-5.109c-1.040 0-1.882-0.843-1.882-1.882v0-9.95c0-1.040-0.843-1.882-1.882-1.882v0h-37.647c-1.040 0-1.882 0.843-1.882 1.882v0 9.95c0 1.040-0.843 1.882-1.882 1.882v0h-5.109c-1.040 0-1.882-0.843-1.882-1.882v0-0.808c0-1.040-0.843-1.882-1.882-1.882v0h-2.152c-1.040 0-1.882-0.843-1.882-1.882v0-5.378c0-1.040-0.843-1.882-1.882-1.882v0h-2.152c-1.040 0-1.882-0.843-1.882-1.882v0-0.806c0-1.040 0.843-1.882 1.882-1.882v0h2.152c1.040 0 1.882-0.843 1.882-1.882v0-5.378c0-1.040 0.843-1.882 1.882-1.882v0h2.152c1.040 0 1.882-0.843 1.882-1.882v0-0.808c0-1.040 0.843-1.882 1.882-1.882v0h5.109c1.040 0 1.882 0.843 1.882 1.882v0 9.95c0 1.040 0.843 1.882 1.882 1.882v0h37.647c1.040 0 1.882-0.843 1.882-1.882v0-9.95c0-1.040 0.843-1.882 1.882-1.882v0h5.109c1.040 0 1.882 0.843 1.882 1.882v0 0.808c0 1.040 0.843 1.882 1.882 1.882v0h2.152c1.040 0 1.882 0.843 1.882 1.882v0 5.378c0 1.040 0.843 1.882 1.882 1.882v0h2.152z"></path>
<path fill="#efede8" style="fill: var(--color2, #efede8)" d="M97.882 29.873v-26.353h9.412c1.431 0 2.724 0.358 3.878 1.073 2.286 1.426 3.784 3.927 3.784 6.778 0 0.026-0 0.052-0 0.078l0-0.004c0 1.481-0.352 2.824-1.054 4.028-0.686 1.183-1.626 2.147-2.751 2.841l-0.035 0.020c-1.167 0.702-2.441 1.054-3.821 1.054h-4.819v10.485h-4.593zM102.475 14.795h4.329c0.653 0 1.248-0.164 1.788-0.489s0.966-0.766 1.28-1.318c0.326-0.552 0.489-1.167 0.489-1.845 0-0.015 0-0.034 0-0.052 0-0.668-0.182-1.293-0.499-1.828l0.009 0.017c-0.311-0.547-0.744-0.992-1.264-1.309l-0.016-0.009c-0.5-0.307-1.106-0.49-1.754-0.49-0.012 0-0.024 0-0.036 0h-4.328v7.322zM125.393 30.362c-1.732 0-3.313-0.446-4.744-1.336-1.419-0.901-2.569-2.105-3.381-3.527l-0.026-0.049c-0.794-1.406-1.262-3.087-1.262-4.878 0-0.039 0-0.078 0.001-0.116l-0 0.006c0-1.38 0.245-2.667 0.734-3.859 0.489-1.205 1.16-2.259 2.014-3.162 0.836-0.888 1.836-1.61 2.953-2.122l0.059-0.024c1.058-0.488 2.297-0.772 3.601-0.772 0.018 0 0.035 0 0.053 0h-0.003c1.732 0 3.307 0.446 4.725 1.336 1.428 0.897 2.581 2.11 3.382 3.546l0.025 0.050c0.853 1.506 1.28 3.176 1.28 5.007 0 1.368-0.245 2.648-0.734 3.84-0.505 1.223-1.191 2.272-2.037 3.167l0.005-0.005c-0.853 0.904-1.85 1.613-2.993 2.127-1.129 0.514-2.347 0.772-3.652 0.772zM125.393 25.769c0.917 0 1.737-0.245 2.466-0.734 0.727-0.489 1.299-1.135 1.713-1.939 0.427-0.804 0.64-1.681 0.64-2.635 0-0.979-0.22-1.869-0.659-2.673-0.414-0.799-1.008-1.454-1.731-1.927l-0.019-0.012c-0.666-0.46-1.491-0.734-2.38-0.734-0.010 0-0.020 0-0.031 0h0.002c-0.904 0-1.719 0.245-2.447 0.734s-1.306 1.143-1.732 1.958c-0.427 0.815-0.64 1.7-0.64 2.654 0 0.992 0.218 1.888 0.659 2.692 0.439 0.804 1.022 1.444 1.751 1.92 0.74 0.465 1.544 0.696 2.409 0.696zM146.566 29.873h-4.555l-6.287-18.824h4.499l4.085 12.179 4.066-12.179h4.536l4.066 12.179 4.085-12.179h4.499l-6.287 18.824h-4.555l-4.085-12.235-4.066 12.235zM175.906 30.362c-1.732 0-3.313-0.446-4.744-1.336-1.423-0.904-2.573-2.115-3.381-3.546l-0.026-0.050c-0.794-1.406-1.262-3.087-1.262-4.877 0-0.039 0-0.078 0.001-0.117l-0 0.006c0-1.368 0.245-2.648 0.734-3.84 0.489-1.205 1.161-2.259 2.014-3.162 0.866-0.917 1.871-1.632 3.012-2.146 1.058-0.488 2.297-0.772 3.601-0.772 0.018 0 0.035 0 0.053 0h-0.003c0.030-0 0.066-0.001 0.101-0.001 1.433 0 2.785 0.348 3.975 0.964l-0.048-0.023c1.245 0.627 2.288 1.483 3.11 2.522l0.015 0.019c1.398 1.762 2.242 4.017 2.242 6.47 0 0.547-0.042 1.083-0.123 1.607l0.007-0.058h-13.76c0.177 0.702 0.465 1.336 0.866 1.901 0.403 0.552 0.911 0.998 1.525 1.336 0.616 0.326 1.312 0.495 2.089 0.508 0.804 0.013 1.532-0.175 2.184-0.565 0.666-0.401 1.218-0.941 1.656-1.619l4.687 1.092c-0.777 1.682-1.945 3.068-3.394 4.082l-0.032 0.021c-1.517 1.054-3.219 1.581-5.101 1.581zM171.275 18.579h9.261c-0.137-0.753-0.433-1.431-0.885-2.033-0.432-0.604-0.979-1.098-1.613-1.455l-0.025-0.013c-0.601-0.343-1.32-0.546-2.086-0.546-0.008 0-0.015 0-0.023 0h0.001c-0.753 0-1.449 0.183-2.089 0.546-0.64 0.352-1.186 0.834-1.638 1.449-0.439 0.602-0.74 1.286-0.904 2.052zM188.269 29.873l-0.019-18.824h4.593l0.019 1.675c0.64-0.678 1.404-1.21 2.296-1.6 0.89-0.401 1.85-0.602 2.88-0.602 0.689 0 1.38 0.1 2.071 0.301l-1.807 4.631c-0.434-0.18-0.938-0.285-1.466-0.285-0.737 0-1.427 0.204-2.015 0.558l0.018-0.010c-0.602 0.352-1.086 0.834-1.449 1.449-0.352 0.602-0.527 1.274-0.527 2.014v10.692h-4.593zM202.221 29.873v-26.353h9.412c1.431 0 2.722 0.358 3.878 1.073 2.286 1.426 3.784 3.927 3.784 6.778 0 0.026-0 0.052-0 0.078l0-0.004c0 1.481-0.352 2.824-1.054 4.028-0.686 1.183-1.626 2.147-2.751 2.841l-0.035 0.020c-1.167 0.702-2.441 1.054-3.821 1.054h-4.819v10.485h-4.593zM206.814 14.795h4.329c0.651 0 1.248-0.164 1.788-0.489 0.535-0.326 0.968-0.771 1.271-1.3l0.009-0.018c0.326-0.552 0.489-1.167 0.489-1.845 0-0.691-0.164-1.312-0.489-1.864-0.312-0.547-0.745-0.992-1.264-1.309l-0.016-0.009c-0.501-0.307-1.107-0.49-1.756-0.49-0.011 0-0.023 0-0.034 0h-4.328v7.322zM221.248 22.908v-11.859h4.593v10.654c0 0.74 0.181 1.417 0.546 2.033 0.363 0.602 0.847 1.086 1.449 1.449 0.614 0.352 1.286 0.527 2.014 0.527 0.753 0 1.431-0.175 2.033-0.527 0.6-0.363 1.084-0.847 1.449-1.449 0.363-0.616 0.546-1.293 0.546-2.033v-10.654h4.593l0.019 18.824h-4.595l-0.017-1.713c-0.653 0.678-1.425 1.218-2.315 1.619-0.892 0.39-1.845 0.584-2.861 0.584-0.023 0-0.050 0-0.077 0-1.353 0-2.62-0.371-3.704-1.016l0.033 0.018c-1.118-0.673-2.030-1.579-2.689-2.657l-0.020-0.034c-0.627-1.053-0.998-2.321-0.998-3.676 0-0.031 0-0.062 0.001-0.093l-0 0.005zM242.368 29.873v-28.235h4.593v28.235h-4.593zM257.039 30.212c-1.038-0.067-2.006-0.275-2.915-0.607l0.072 0.023c-0.924-0.345-1.721-0.81-2.424-1.386l0.015 0.012c-0.68-0.555-1.227-1.247-1.604-2.035l-0.015-0.035 3.878-1.656c0.151 0.25 0.395 0.521 0.734 0.809 0.339 0.277 0.74 0.508 1.205 0.696 0.476 0.188 0.998 0.282 1.562 0.282 0.476 0 0.928-0.062 1.355-0.188 0.439-0.137 0.791-0.344 1.054-0.621 0.257-0.262 0.415-0.622 0.415-1.018 0-0.019-0-0.038-0.001-0.057l0 0.003c0-0.465-0.164-0.823-0.489-1.073-0.337-0.272-0.742-0.475-1.184-0.579l-0.020-0.004c-0.478-0.137-0.941-0.264-1.393-0.376-1.256-0.249-2.371-0.634-3.412-1.146l0.080 0.036c-0.98-0.472-1.804-1.127-2.456-1.926l-0.010-0.013c-0.616-0.804-0.922-1.769-0.922-2.899 0-1.242 0.326-2.315 0.979-3.219 0.664-0.904 1.525-1.6 2.579-2.089 0.993-0.464 2.155-0.734 3.381-0.734 0.022 0 0.045 0 0.067 0l-0.003-0c1.493 0 2.861 0.314 4.104 0.941 1.254 0.616 2.246 1.487 2.974 2.616l-3.633 2.146c-0.198-0.324-0.442-0.599-0.728-0.823l-0.007-0.005c-0.307-0.257-0.662-0.473-1.046-0.63l-0.027-0.010c-0.37-0.166-0.8-0.275-1.251-0.301l-0.010-0c-0.565-0.024-1.080 0.024-1.544 0.151-0.465 0.126-0.841 0.339-1.129 0.64-0.277 0.301-0.414 0.702-0.414 1.205 0 0.476 0.188 0.834 0.565 1.073 0.376 0.226 0.828 0.401 1.355 0.527 0.538 0.126 1.054 0.264 1.544 0.414 1.202 0.397 2.229 0.849 3.203 1.385l-0.097-0.049c0.979 0.527 1.762 1.173 2.353 1.939 0.589 0.766 0.872 1.681 0.847 2.748 0 1.218-0.365 2.283-1.092 3.2-0.728 0.904-1.67 1.594-2.824 2.071-0.884 0.376-1.913 0.594-2.993 0.594-0.239 0-0.475-0.011-0.708-0.032l0.030 0.002zM275.834 30.362c-1.732 0-3.313-0.446-4.744-1.336-1.423-0.904-2.574-2.115-3.381-3.546l-0.026-0.050c-0.794-1.405-1.262-3.086-1.262-4.876 0-0.040 0-0.079 0.001-0.118l-0 0.006c0-1.368 0.245-2.648 0.734-3.84 0.489-1.205 1.16-2.259 2.014-3.162 0.866-0.917 1.869-1.632 3.012-2.146 1.058-0.488 2.296-0.772 3.6-0.772 0.018 0 0.036 0 0.054 0h-0.003c1.468 0 2.81 0.314 4.028 0.941 1.245 0.628 2.287 1.484 3.11 2.522l0.015 0.019c1.397 1.764 2.241 4.021 2.241 6.475 0 0.545-0.042 1.080-0.122 1.602l0.007-0.058h-13.76c0.175 0.702 0.463 1.336 0.866 1.901 0.401 0.552 0.909 0.998 1.525 1.336 0.614 0.326 1.31 0.495 2.089 0.508 0.802 0.013 1.53-0.175 2.184-0.565 0.664-0.401 1.216-0.941 1.656-1.619l4.687 1.092c-0.777 1.681-1.946 3.067-3.394 4.082l-0.032 0.021c-1.519 1.054-3.219 1.581-5.101 1.581zM271.204 18.579h9.261c-0.139-0.753-0.433-1.431-0.885-2.033-0.432-0.604-0.979-1.097-1.613-1.455l-0.025-0.013c-0.601-0.343-1.32-0.546-2.086-0.546-0.008 0-0.015 0-0.023 0h0.001c-0.753 0-1.449 0.183-2.089 0.546-0.64 0.352-1.186 0.834-1.638 1.449-0.44 0.602-0.742 1.286-0.904 2.052z"></path>
</symbol>
  
<symbol id="icon-clean-filter" viewBox="0 0 32 32">
<path stroke-linejoin="round" stroke-linecap="round" stroke-miterlimit="4" stroke-width="3.5556" d="M24 8l-16 16"></path>
<path stroke-linejoin="round" stroke-linecap="round" stroke-miterlimit="4" stroke-width="3.5556" d="M8 8l16 16"></path>
</symbol>
<symbol id="icon-close" viewBox="0 0 32 32">
<path d="M31.708 25.708c-0-0-0-0-0-0l-9.708-9.708 9.708-9.708c0-0 0-0 0-0 0.105-0.105 0.18-0.227 0.229-0.357 0.133-0.356 0.057-0.771-0.229-1.057l-4.586-4.586c-0.286-0.286-0.702-0.361-1.057-0.229-0.13 0.048-0.252 0.124-0.357 0.228 0 0-0 0-0 0l-9.708 9.708-9.708-9.708c-0-0-0-0-0-0-0.105-0.104-0.227-0.18-0.357-0.228-0.356-0.133-0.771-0.057-1.057 0.229l-4.586 4.586c-0.286 0.286-0.361 0.702-0.229 1.057 0.049 0.13 0.124 0.252 0.229 0.357 0 0 0 0 0 0l9.708 9.708-9.708 9.708c-0 0-0 0-0 0-0.104 0.105-0.18 0.227-0.229 0.357-0.133 0.355-0.057 0.771 0.229 1.057l4.586 4.586c0.286 0.286 0.702 0.361 1.057 0.229 0.13-0.049 0.252-0.124 0.357-0.229 0-0 0-0 0-0l9.708-9.708 9.708 9.708c0 0 0 0 0 0 0.105 0.105 0.227 0.18 0.357 0.229 0.356 0.133 0.771 0.057 1.057-0.229l4.586-4.586c0.286-0.286 0.362-0.702 0.229-1.057-0.049-0.13-0.124-0.252-0.229-0.357z"></path>
</symbol>

<symbol id="icon-google" viewBox="0 0 32 32">
<path fill="#ffc107" style="fill: var(--color1, #ffc107)" d="M29.074 13.389h-1.074v-0.055h-12v5.333h7.535c-1.099 3.105-4.053 5.333-7.535 5.333-4.418 0-8-3.582-8-8s3.582-8 8-8c2.039 0 3.895 0.769 5.307 2.026l3.771-3.771c-2.381-2.219-5.567-3.588-9.079-3.588-7.363 0-13.333 5.97-13.333 13.333s5.97 13.333 13.333 13.333 13.333-5.97 13.333-13.333c0-0.894-0.092-1.767-0.259-2.611z"></path>
<path fill="#ff3d00" style="fill: var(--color2, #ff3d00)" d="M4.204 9.794l4.381 3.213c1.185-2.935 4.056-5.007 7.415-5.007 2.039 0 3.895 0.769 5.307 2.026l3.771-3.771c-2.381-2.219-5.567-3.588-9.079-3.588-5.121 0-9.563 2.891-11.796 7.127z"></path>
<path fill="#4caf50" style="fill: var(--color3, #4caf50)" d="M16 29.333c3.444 0 6.573-1.318 8.939-3.461l-4.127-3.492c-1.318 1.011-2.991 1.62-4.806 1.62-0.002 0-0.004 0-0.007 0h0c-3.468 0-6.413-2.211-7.522-5.297l-4.348 3.35c2.207 4.318 6.688 7.281 11.87 7.281z"></path>
<path fill="#1976d2" style="fill: var(--color4, #1976d2)" d="M29.074 13.389h-1.074v-0.055h-12v5.333h7.535c-0.549 1.515-1.492 2.776-2.705 3.7l-0.020 0.014 0.002-0.001 4.127 3.492c-0.292 0.265 4.394-3.205 4.394-9.871 0-0.894-0.092-1.767-0.259-2.611z"></path>
</symbol>

</defs>
</svg>